<svg xmlns="http://www.w3.org/2000/svg" viewBox="0 0 540 340" width="100%" height="100%">
  <g fill="#7A1C1C">
    <path d="M 40 100 L 100 160 L 40 220 Z" />
    <path d="M 40 240 L 100 180 L 100 300 Z" />
    
    <path d="M 60 80 L 160 80 L 110 130 Z" />
    <path d="M 120 140 L 170 90 L 170 190 Z" />
    
    <path d="M 110 170 L 110 290 L 170 230 Z" />
    <path d="M 120 300 L 180 300 L 180 240 Z" />

    <path d="M 190 100 L 250 160 L 190 220 Z" />
    <path d="M 350 100 L 290 160 L 350 220 Z" />
    <path d="M 270 180 L 310 220 L 270 260 L 230 220 Z" />

    <path d="M 480 80 L 380 80 L 430 130 Z" />
    <path d="M 420 140 L 370 90 L 370 190 Z" />
    
    <path d="M 500 100 L 440 160 L 500 220 Z" />
    <path d="M 500 240 L 440 180 L 440 300 Z" />
    
    <path d="M 430 170 L 430 290 L 370 230 Z" />
    <path d="M 420 300 L 360 300 L 360 240 Z" />
  </g>
</svg>
